{"asset":{"version":"2.0","generator":"Blockbench 4.10.4 glTF exporter"},"scenes":[{"nodes":[6,13,15],"name":"blockbench_export"}],"scene":0,"nodes":[{"translation":[-0.21093749999999997,0.05,0.015625],"name":"Front"},{"translation":[-0.1765625,0.05,0.0765625],"name":"Diagonals"},{"translation":[-0.140625,0.05,0.0859375],"name":"Side2"},{"translation":[-0.140625,0.05,-0.0859375],"name":"Side1"},{"name":"Teeth_Body","children":[0,1,2,3]},{"name":"Body","children":[4]},{"name":"Body","mesh":0,"children":[5],"skin":0},{"translation":[-0.2109375,0.04999999999999999,0.015625],"name":"Front2"},{"translation":[-0.1765625,0.04999999999999999,0.0765625],"name":"Diagonals2"},{"translation":[-0.140625,0.04999999999999999,0.0859375],"name":"Side3"},{"translation":[-0.140625,0.04999999999999999,-0.0859375],"name":"Side4"},{"rotation":[-1,0,0,6.123233995736766e-17],"translation":[0,0.125,0],"name":"Teeth_Head","children":[7,8,9,10]},{"name":"Head","children":[11]},{"name":"Head","mesh":1,"children":[12],"skin":1},{"name":"Arms"},{"name":"Arms","mesh":2,"children":[14],"skin":2}],"bufferViews":[{"buffer":0,"byteOffset":0,"byteLength":25968,"target":34962,"byteStride":12},{"buffer":0,"byteOffset":25968,"byteLength":25968,"target":34962,"byteStride":12},{"buffer":0,"byteOffset":51936,"byteLength":17312,"target":34962,"byteStride":8},{"buffer":0,"byteOffset":69248,"byteLength":17312,"target":34962,"byteStride":8},{"buffer":0,"byteOffset":86560,"byteLength":34624,"target":34962,"byteStride":16},{"buffer":0,"byteOffset":121184,"byteLength":1044,"target":34963},{"buffer":0,"byteOffset":122228,"byteLength":5376,"target":34963},{"buffer":0,"byteOffset":127604,"byteLength":22728,"target":34962,"byteStride":12},{"buffer":0,"byteOffset":150332,"byteLength":22728,"target":34962,"byteStride":12},{"buffer":0,"byteOffset":173060,"byteLength":15152,"target":34962,"byteStride":8},{"buffer":0,"byteOffset":188212,"byteLength":15152,"target":34962,"byteStride":8},{"buffer":0,"byteOffset":203364,"byteLength":30304,"target":34962,"byteStride":16},{"buffer":0,"byteOffset":233668,"byteLength":1572,"target":34963},{"buffer":0,"byteOffset":235240,"byteLength":4032,"target":34963},{"buffer":0,"byteOffset":239272,"byteLength":10968,"target":34962,"byteStride":12},{"buffer":0,"byteOffset":250240,"byteLength":10968,"target":34962,"byteStride":12},{"buffer":0,"byteOffset":261208,"byteLength":7312,"target":34962,"byteStride":8},{"buffer":0,"byteOffset":268520,"byteLength":7312,"target":34962,"byteStride":8},{"buffer":0,"byteOffset":275832,"byteLength":14624,"target":34962,"byteStride":16},{"buffer":0,"byteOffset":290456,"byteLength":2436,"target":34963},{"buffer":0,"byteOffset":292892,"byteLength":384},{"buffer":0,"byteOffset":293276,"byteLength":384},{"buffer":0,"byteOffset":293660,"byteLength":64}],"buffers":[{"byteLength":293724,"uri":"data:application/octet-stream;base64,"}],"accessors":[{"bufferView":0,"componentType":5126,"count":2164,"max":[0.203125,0.109375,0.09375],"min":[-0.2187381237745285,0,-0.09375],"type":"VEC3"},{"bufferView":1,"componentType":5126,"count":2164,"max":[1,1,1],"min":[-1,-1,-1],"type":"VEC3"},{"bufferView":2,"componentType":5126,"count":2164,"max":[0.5657547116279602,0.5687500238418579],"min":[0,0],"type":"VEC2"},{"bufferView":3,"componentType":5123,"count":2164,"max":[0,5,0,0],"min":[0,0,0,0],"type":"VEC4"},{"bufferView":4,"componentType":5126,"count":2164,"max":[0,1,0,0],"min":[0,1,0,0],"type":"VEC4"},{"bufferView":5,"componentType":5123,"count":522,"max":[371],"min":[0],"type":"SCALAR"},{"bufferView":6,"componentType":5123,"count":2688,"max":[2163],"min":[372],"type":"SCALAR"},{"bufferView":7,"componentType":5126,"count":1894,"max":[0.03125,0.1875,0.10000000149011612],"min":[-0.21875,0.06031249836087227,-0.10000000149011612],"type":"VEC3"},{"bufferView":8,"componentType":5126,"count":1894,"max":[1,1,1],"min":[-1,-1,-1],"type":"VEC3"},{"bufferView":9,"componentType":5126,"count":1894,"max":[0.5657547116279602,0.5672374963760376],"min":[0,0],"type":"VEC2"},{"bufferView":10,"componentType":5123,"count":1894,"max":[0,5,0,0],"min":[0,0,0,0],"type":"VEC4"},{"bufferView":11,"componentType":5126,"count":1894,"max":[0,1,0,0],"min":[0,1,0,0],"type":"VEC4"},{"bufferView":12,"componentType":5123,"count":786,"max":[549],"min":[0],"type":"SCALAR"},{"bufferView":13,"componentType":5123,"count":2016,"max":[1893],"min":[550],"type":"SCALAR"},{"bufferView":14,"componentType":5126,"count":914,"max":[0.05937499925494194,0.07369869947433472,0.17395833134651184],"min":[-0.04218749701976776,0,-0.17395833134651184],"type":"VEC3"},{"bufferView":15,"componentType":5126,"count":914,"max":[1,1,1],"min":[-1,-1,-1],"type":"VEC3"},{"bufferView":16,"componentType":5126,"count":914,"max":[0.5390625,0.535937488079071],"min":[0,0],"type":"VEC2"},{"bufferView":17,"componentType":5123,"count":914,"max":[0,0,0,0],"min":[0,0,0,0],"type":"VEC4"},{"bufferView":18,"componentType":5126,"count":914,"max":[0,1,0,0],"min":[0,1,0,0],"type":"VEC4"},{"bufferView":19,"componentType":5123,"count":1218,"max":[913],"min":[0],"type":"SCALAR"},{"bufferView":20,"componentType":5126,"count":6,"max":[1,0,0,0,0,1,0,0,0,0,1,0,0.2109375,0,0.0859375,1],"min":[1,0,0,0,0,1,0,0,0,0,1,0,0,-0.05000000074505806,-0.0859375,1],"type":"MAT4"},{"bufferView":21,"componentType":5126,"count":6,"max":[1,0,0,0,0,1,1.2246468525851679e-16,0,0,0,1,0,0.2109375,0.125,0.0859375,1],"min":[1,0,0,0,0,-1,0,0,0,-1.2246468525851679e-16,-1,0,0,0,-0.0859375,1],"type":"MAT4"},{"bufferView":22,"componentType":5126,"count":1,"max":[1,0,0,0,0,1,0,0,0,0,1,0,0,0,0,1],"min":[1,0,0,0,0,1,0,0,0,0,1,0,0,0,0,1],"type":"MAT4"}],"materials":[{"pbrMetallicRoughness":{"metallicFactor":0,"roughnessFactor":1,"baseColorTexture":{"index":0}},"alphaMode":"MASK","alphaCutoff":0.05,"doubleSided":true},{"pbrMetallicRoughness":{"metallicFactor":0,"roughnessFactor":1,"baseColorTexture":{"index":1}},"alphaMode":"MASK","alphaCutoff":0.05,"doubleSided":true},{"pbrMetallicRoughness":{"metallicFactor":0,"roughnessFactor":1,"baseColorTexture":{"index":2}},"alphaMode":"MASK","alphaCutoff":0.05,"doubleSided":true},{"pbrMetallicRoughness":{"metallicFactor":0,"roughnessFactor":1,"baseColorTexture":{"index":3}},"alphaMode":"MASK","alphaCutoff":0.05,"doubleSided":true},{"pbrMetallicRoughness":{"metallicFactor":0,"roughnessFactor":1,"baseColorTexture":{"index":4}},"alphaMode":"MASK","alphaCutoff":0.05,"doubleSided":true}],"textures":[{"sampler":0,"source":0,"name":"AligatorBody.png"},{"sampler":1,"source":1,"name":"AligatorTeethBody"},{"sampler":2,"source":2,"name":"AligatorHead.png"},{"sampler":3,"source":3,"name":"AligatorTeeth Head"},{"sampler":4,"source":4,"name":"Aligator Arms"}],"samplers":[{"magFilter":9728,"minFilter":9728,"wrapS":33071,"wrapT":33071},{"magFilter":9728,"minFilter":9728,"wrapS":33071,"wrapT":33071},{"magFilter":9728,"minFilter":9728,"wrapS":33071,"wrapT":33071},{"magFilter":9728,"minFilter":9728,"wrapS":33071,"wrapT":33071},{"magFilter":9728,"minFilter":9728,"wrapS":33071,"wrapT":33071}],"images":[{"mimeType":"image/png","uri":"data:image/png;base64,"},{"mimeType":"image/png","uri":"data:image/png;base64,"},{"mimeType":"image/png","uri":"data:image/png;base64,"},{"mimeType":"image/png","uri":"data:image/png;base64,"},{"mimeType":"image/png","uri":"data:image/png;base64,"}],"meshes":[{"primitives":[{"mode":4,"attributes":{"POSITION":0,"NORMAL":1,"TEXCOORD_0":2,"JOINTS_0":3,"WEIGHTS_0":4},"indices":5,"material":0},{"mode":4,"attributes":{"POSITION":0,"NORMAL":1,"TEXCOORD_0":2,"JOINTS_0":3,"WEIGHTS_0":4},"indices":6,"material":1}]},{"primitives":[{"mode":4,"attributes":{"POSITION":7,"NORMAL":8,"TEXCOORD_0":9,"JOINTS_0":10,"WEIGHTS_0":11},"indices":12,"material":2},{"mode":4,"attributes":{"POSITION":7,"NORMAL":8,"TEXCOORD_0":9,"JOINTS_0":10,"WEIGHTS_0":11},"indices":13,"material":3}]},{"primitives":[{"mode":4,"attributes":{"POSITION":14,"NORMAL":15,"TEXCOORD_0":16,"JOINTS_0":17,"WEIGHTS_0":18},"indices":19,"material":4}]}],"skins":[{"inverseBindMatrices":20,"joints":[5,4,0,1,2,3],"skeleton":5},{"inverseBindMatrices":21,"joints":[12,11,7,8,9,10],"skeleton":12},{"inverseBindMatrices":22,"joints":[14],"skeleton":14}]}