{"asset":{"version":"2.0","generator":"Blockbench 4.10.4 glTF exporter"},"scenes":[{"nodes":[22,41,45],"name":"blockbench_export"}],"scene":0,"nodes":[{"name":"MidRight"},{"name":"MidLeft"},{"name":"Right"},{"name":"Left"},{"translation":[-0.21093749999999997,0.05,0.015625],"name":"Front","children":[0,1,2,3]},{"name":"RightD"},{"name":"LeftD"},{"translation":[-0.1765625,0.05,0.0765625],"name":"Diagonals","children":[5,6]},{"name":"R1"},{"name":"R2"},{"name":"R3"},{"name":"R4"},{"name":"R5"},{"translation":[-0.140625,0.05,0.0859375],"name":"RightSide","children":[8,9,10,11,12]},{"name":"L1"},{"name":"L2"},{"name":"L3"},{"name":"L4"},{"name":"L5"},{"translation":[-0.140625,0.05,-0.0859375],"name":"LeftSide","children":[14,15,16,17,18]},{"name":"Teeth_Body","children":[4,7,13,19]},{"name":"Body","children":[20]},{"name":"Body","mesh":0,"children":[21],"skin":0},{"name":"UMidRight"},{"name":"UMidLeft"},{"name":"URight"},{"name":"ULeft"},{"translation":[-0.2109375,0.04999999999999999,0.015625],"name":"Front2","children":[23,24,25,26]},{"name":"UDRight"},{"name":"UDLeft"},{"translation":[-0.1765625,0.04999999999999999,0.0765625],"name":"Diagonals2","children":[28,29]},{"name":"UL1"},{"name":"UL2"},{"name":"UL3"},{"translation":[-0.140625,0.04999999999999999,0.0859375],"name":"Side3","children":[31,32,33]},{"name":"UR1"},{"name":"UR2"},{"name":"UR3"},{"translation":[-0.140625,0.04999999999999999,-0.0859375],"name":"Side4","children":[35,36,37]},{"rotation":[-1,0,0,6.123233995736766e-17],"translation":[0,0.125,0],"name":"Teeth_Head","children":[27,30,34,38]},{"name":"Head","children":[39]},{"name":"Head","mesh":1,"children":[40],"skin":1},{"translation":[-0.049999999999999996,-0.059375,0],"name":"Arm1"},{"translation":[-0.049999999999999996,-0.059375,0],"name":"Arm2"},{"name":"Arms","children":[42,43]},{"translation":[0.049999999999999996,0.059375,0],"name":"Arms","mesh":2,"children":[44],"skin":2}],"bufferViews":[{"buffer":0,"byteOffset":0,"byteLength":25968,"target":34962,"byteStride":12},{"buffer":0,"byteOffset":25968,"byteLength":25968,"target":34962,"byteStride":12},{"buffer":0,"byteOffset":51936,"byteLength":17312,"target":34962,"byteStride":8},{"buffer":0,"byteOffset":69248,"byteLength":17312,"target":34962,"byteStride":8},{"buffer":0,"byteOffset":86560,"byteLength":34624,"target":34962,"byteStride":16},{"buffer":0,"byteOffset":121184,"byteLength":1044,"target":34963},{"buffer":0,"byteOffset":122228,"byteLength":3360,"target":34963},{"buffer":0,"byteOffset":125588,"byteLength":336,"target":34963},{"buffer":0,"byteOffset":125924,"byteLength":1680,"target":34963},{"buffer":0,"byteOffset":127604,"byteLength":22728,"target":34962,"byteStride":12},{"buffer":0,"byteOffset":150332,"byteLength":22728,"target":34962,"byteStride":12},{"buffer":0,"byteOffset":173060,"byteLength":15152,"target":34962,"byteStride":8},{"buffer":0,"byteOffset":188212,"byteLength":15152,"target":34962,"byteStride":8},{"buffer":0,"byteOffset":203364,"byteLength":30304,"target":34962,"byteStride":16},{"buffer":0,"byteOffset":233668,"byteLength":1572,"target":34963},{"buffer":0,"byteOffset":235240,"byteLength":3696,"target":34963},{"buffer":0,"byteOffset":238936,"byteLength":336,"target":34963},{"buffer":0,"byteOffset":239272,"byteLength":10968,"target":34962,"byteStride":12},{"buffer":0,"byteOffset":250240,"byteLength":10968,"target":34962,"byteStride":12},{"buffer":0,"byteOffset":261208,"byteLength":7312,"target":34962,"byteStride":8},{"buffer":0,"byteOffset":268520,"byteLength":7312,"target":34962,"byteStride":8},{"buffer":0,"byteOffset":275832,"byteLength":14624,"target":34962,"byteStride":16},{"buffer":0,"byteOffset":290456,"byteLength":2436,"target":34963},{"buffer":0,"byteOffset":292892,"byteLength":1408},{"buffer":0,"byteOffset":294300,"byteLength":1152},{"buffer":0,"byteOffset":295452,"byteLength":192}],"buffers":[{"byteLength":295644,"uri":"data:application/octet-stream;base64,"}],"accessors":[{"bufferView":0,"componentType":5126,"count":2164,"max":[0.203125,0.109375,0.09375],"min":[-0.2187381237745285,0,-0.09375],"type":"VEC3"},{"bufferView":1,"componentType":5126,"count":2164,"max":[1,1,1],"min":[-1,-1,-1],"type":"VEC3"},{"bufferView":2,"componentType":5126,"count":2164,"max":[2.263018846511841,2.2750000953674316],"min":[0,0],"type":"VEC2"},{"bufferView":3,"componentType":5123,"count":2164,"max":[0,21,0,0],"min":[0,0,0,0],"type":"VEC4"},{"bufferView":4,"componentType":5126,"count":2164,"max":[0,1,0,0],"min":[0,1,0,0],"type":"VEC4"},{"bufferView":5,"componentType":5123,"count":522,"max":[371],"min":[0],"type":"SCALAR"},{"bufferView":6,"componentType":5123,"count":1680,"max":[1491],"min":[372],"type":"SCALAR"},{"bufferView":7,"componentType":5123,"count":168,"max":[1603],"min":[1492],"type":"SCALAR"},{"bufferView":8,"componentType":5123,"count":840,"max":[2163],"min":[1604],"type":"SCALAR"},{"bufferView":9,"componentType":5126,"count":1894,"max":[0.03125,0.1875,0.10000000149011612],"min":[-0.21875,0.06031249836087227,-0.10000000149011612],"type":"VEC3"},{"bufferView":10,"componentType":5126,"count":1894,"max":[1,1,1],"min":[-1,-1,-1],"type":"VEC3"},{"bufferView":11,"componentType":5126,"count":1894,"max":[2.263018846511841,2.2689499855041504],"min":[0,0],"type":"VEC2"},{"bufferView":12,"componentType":5123,"count":1894,"max":[0,17,0,0],"min":[0,0,0,0],"type":"VEC4"},{"bufferView":13,"componentType":5126,"count":1894,"max":[0,1,0,0],"min":[0,1,0,0],"type":"VEC4"},{"bufferView":14,"componentType":5123,"count":786,"max":[549],"min":[0],"type":"SCALAR"},{"bufferView":15,"componentType":5123,"count":1848,"max":[1781],"min":[550],"type":"SCALAR"},{"bufferView":16,"componentType":5123,"count":168,"max":[1893],"min":[1782],"type":"SCALAR"},{"bufferView":17,"componentType":5126,"count":914,"max":[0.009374999441206455,0.014323699288070202,0.17395833134651184],"min":[-0.09218749403953552,-0.05937499925494194,-0.17395833134651184],"type":"VEC3"},{"bufferView":18,"componentType":5126,"count":914,"max":[1,1,1],"min":[-1,-1,-1],"type":"VEC3"},{"bufferView":19,"componentType":5126,"count":914,"max":[0.5390625,0.535937488079071],"min":[0,0],"type":"VEC2"},{"bufferView":20,"componentType":5123,"count":914,"max":[0,2,0,0],"min":[0,1,0,0],"type":"VEC4"},{"bufferView":21,"componentType":5126,"count":914,"max":[0,1,0,0],"min":[0,1,0,0],"type":"VEC4"},{"bufferView":22,"componentType":5123,"count":1218,"max":[913],"min":[0],"type":"SCALAR"},{"bufferView":23,"componentType":5126,"count":22,"max":[1,0,0,0,0,1,0,0,0,0,1,0,0.2109375,0,0.0859375,1],"min":[1,0,0,0,0,1,0,0,0,0,1,0,0,-0.05000000074505806,-0.0859375,1],"type":"MAT4"},{"bufferView":24,"componentType":5126,"count":18,"max":[1,0,0,0,0,1,1.2246468525851679e-16,0,0,0,1,0,0.2109375,0.125,0.0859375,1],"min":[1,0,0,0,0,-1,0,0,0,-1.2246468525851679e-16,-1,0,0,0,-0.0859375,1],"type":"MAT4"},{"bufferView":25,"componentType":5126,"count":3,"max":[1,0,0,0,0,1,0,0,0,0,1,0,0.05000000074505806,0.05937499925494194,0,1],"min":[1,0,0,0,0,1,0,0,0,0,1,0,0,0,0,1],"type":"MAT4"}],"materials":[{"pbrMetallicRoughness":{"metallicFactor":0,"roughnessFactor":1,"baseColorTexture":{"index":0}},"alphaMode":"MASK","alphaCutoff":0.05,"doubleSided":true},{"pbrMetallicRoughness":{"metallicFactor":0,"roughnessFactor":1},"alphaMode":"MASK","alphaCutoff":0.05,"doubleSided":true},{"pbrMetallicRoughness":{"metallicFactor":0,"roughnessFactor":1,"baseColorTexture":{"index":1}},"alphaMode":"MASK","alphaCutoff":0.05,"doubleSided":true},{"pbrMetallicRoughness":{"metallicFactor":0,"roughnessFactor":1,"baseColorTexture":{"index":2}},"alphaMode":"MASK","alphaCutoff":0.05,"doubleSided":true},{"pbrMetallicRoughness":{"metallicFactor":0,"roughnessFactor":1,"baseColorTexture":{"index":3}},"alphaMode":"MASK","alphaCutoff":0.05,"doubleSided":true},{"pbrMetallicRoughness":{"metallicFactor":0,"roughnessFactor":1,"baseColorTexture":{"index":4}},"alphaMode":"MASK","alphaCutoff":0.05,"doubleSided":true}],"textures":[{"sampler":0,"source":0,"name":"AligatorBody.png"},{"sampler":1,"source":1,"name":"ToothBase.png"},{"sampler":2,"source":2,"name":"AligatorHead.png"},{"sampler":3,"source":3,"name":"UToothBase.png"},{"sampler":4,"source":4,"name":"Aligator Arms.png"}],"samplers":[{"magFilter":9728,"minFilter":9728,"wrapS":33071,"wrapT":33071},{"magFilter":9728,"minFilter":9728,"wrapS":33071,"wrapT":33071},{"magFilter":9728,"minFilter":9728,"wrapS":33071,"wrapT":33071},{"magFilter":9728,"minFilter":9728,"wrapS":33071,"wrapT":33071},{"magFilter":9728,"minFilter":9728,"wrapS":33071,"wrapT":33071}],"images":[{"mimeType":"image/png","uri":"data:image/png;base64,"},{"mimeType":"image/png","uri":"data:image/png;base64,"},{"mimeType":"image/png","uri":"data:image/png;base64,"},{"mimeType":"image/png","uri":"data:image/png;base64,"},{"mimeType":"image/png","uri":"data:image/png;base64,"}],"meshes":[{"primitives":[{"mode":4,"attributes":{"POSITION":0,"NORMAL":1,"TEXCOORD_0":2,"JOINTS_0":3,"WEIGHTS_0":4},"indices":5,"material":0},{"mode":4,"attributes":{"POSITION":0,"NORMAL":1,"TEXCOORD_0":2,"JOINTS_0":3,"WEIGHTS_0":4},"indices":6,"material":1},{"mode":4,"attributes":{"POSITION":0,"NORMAL":1,"TEXCOORD_0":2,"JOINTS_0":3,"WEIGHTS_0":4},"indices":7,"material":2},{"mode":4,"attributes":{"POSITION":0,"NORMAL":1,"TEXCOORD_0":2,"JOINTS_0":3,"WEIGHTS_0":4},"indices":8,"material":1}]},{"primitives":[{"mode":4,"attributes":{"POSITION":9,"NORMAL":10,"TEXCOORD_0":11,"JOINTS_0":12,"WEIGHTS_0":13},"indices":14,"material":3},{"mode":4,"attributes":{"POSITION":9,"NORMAL":10,"TEXCOORD_0":11,"JOINTS_0":12,"WEIGHTS_0":13},"indices":15,"material":1},{"mode":4,"attributes":{"POSITION":9,"NORMAL":10,"TEXCOORD_0":11,"JOINTS_0":12,"WEIGHTS_0":13},"indices":16,"material":4}]},{"primitives":[{"mode":4,"attributes":{"POSITION":17,"NORMAL":18,"TEXCOORD_0":19,"JOINTS_0":20,"WEIGHTS_0":21},"indices":22,"material":5}]}],"skins":[{"inverseBindMatrices":23,"joints":[21,20,4,0,1,2,3,7,5,6,13,8,9,10,11,12,19,14,15,16,17,18],"skeleton":21},{"inverseBindMatrices":24,"joints":[40,39,27,23,24,25,26,30,28,29,34,31,32,33,38,35,36,37],"skeleton":40},{"inverseBindMatrices":25,"joints":[44,42,43],"skeleton":44}]}